<svg width="240" height="76" viewBox="0 0 240 76" fill="none" xmlns="http://www.w3.org/2000/svg">
<path d="M212 26H209V29H212V26Z" fill="#FF0000"/>
<path d="M212 29H209V32H212V29Z" fill="#FF0000"/>
<path d="M215 32H212V35H215V32Z" fill="#FF0000"/>
<path d="M218 29H215V32H218V29Z" fill="#FF0000"/>
<path d="M215 26H212V29H215V26Z" fill="#FF0000"/>
<path d="M209 29H206V32H209V29Z" fill="#FF0000"/>
<path d="M209 32H206V35H209V32Z" fill="#FF0000"/>
<path d="M209 35H206V38H209V35Z" fill="#FF0000"/>
<path d="M218 26H215V29H218V26Z" fill="#FF0000"/>
<path d="M212 35H209V38H212V35Z" fill="#FF0000"/>
<path d="M212 38H209V41H212V38Z" fill="#FF0000"/>
<path d="M215 35H212V38H215V35Z" fill="#FF0000"/>
<path d="M215 38H212V41H215V38Z" fill="#FF0000"/>
<path d="M215 41H212V44H215V41Z" fill="#FF0000"/>
<path d="M218 35H215V38H218V35Z" fill="#FF0000"/>
<path d="M218 32H215V35H218V32Z" fill="#FF0000"/>
<path d="M218 41H215V44H218V41Z" fill="#FF0000"/>
<path d="M218 38H215V41H218V38Z" fill="#FF0000"/>
<path d="M218 44H215V47H218V44Z" fill="#FF0000"/>
<path d="M227 26H230V29H227V26Z" fill="#FF0000"/>
<path d="M227 29H230V32H227V29Z" fill="#FF0000"/>
<path d="M224 29H227V32H224V29Z" fill="#FF0000"/>
<path d="M227 32H230V35H227V32Z" fill="#FF0000"/>
<path d="M224 32H227V35H224V32Z" fill="#FF0000"/>
<path d="M221 29H224V32H221V29Z" fill="#FF0000"/>
<path d="M224 26H227V29H224V26Z" fill="#FF0000"/>
<path d="M230 29H233V32H230V29Z" fill="#FF0000"/>
<path d="M230 32H233V35H230V32Z" fill="#FF0000"/>
<path d="M230 35H233V38H230V35Z" fill="#FF0000"/>
<path d="M221 26H224V29H221V26Z" fill="#FF0000"/>
<path d="M227 35H230V38H227V35Z" fill="#FF0000"/>
<path d="M227 38H230V41H227V38Z" fill="#FF0000"/>
<path d="M224 35H227V38H224V35Z" fill="#FF0000"/>
<path d="M224 38H227V41H224V38Z" fill="#FF0000"/>
<path d="M224 41H227V44H224V41Z" fill="#FF0000"/>
<path d="M221 35H224V38H221V35Z" fill="#FF0000"/>
<path d="M221 32H224V35H221V32Z" fill="#FF0000"/>
<path d="M221 41H224V44H221V41Z" fill="#FF0000"/>
<path d="M221 38H224V41H221V38Z" fill="#FF0000"/>
<path d="M221 44H224V47H221V44Z" fill="#FF0000"/>
<path d="M221 29H218V32H221V29Z" fill="#FF0000"/>
<path d="M221 35H218V38H221V35Z" fill="#FF0000"/>
<path d="M221 32H218V35H221V32Z" fill="#FF0000"/>
<path d="M221 41H218V44H221V41Z" fill="#FF0000"/>
<path d="M221 38H218V41H221V38Z" fill="#FF0000"/>
<path d="M221 44H218V47H221V44Z" fill="#FF0000"/>
<path d="M221 47H218V50H221V47Z" fill="#FF0000"/>
<path d="M172 26H169V29H172V26Z" fill="#FF0000"/>
<path d="M172 29H169V32H172V29Z" fill="#FF0000"/>
<path d="M175 32H172V35H175V32Z" fill="#FF0000"/>
<path d="M178 29H175V32H178V29Z" fill="#FF0000"/>
<path d="M175 26H172V29H175V26Z" fill="#FF0000"/>
<path d="M169 29H166V32H169V29Z" fill="#FF0000"/>
<path d="M169 32H166V35H169V32Z" fill="#FF0000"/>
<path d="M169 35H166V38H169V35Z" fill="#FF0000"/>
<path d="M178 26H175V29H178V26Z" fill="#FF0000"/>
<path d="M172 35H169V38H172V35Z" fill="#FF0000"/>
<path d="M172 38H169V41H172V38Z" fill="#FF0000"/>
<path d="M175 35H172V38H175V35Z" fill="#FF0000"/>
<path d="M175 38H172V41H175V38Z" fill="#FF0000"/>
<path d="M175 41H172V44H175V41Z" fill="#FF0000"/>
<path d="M178 35H175V38H178V35Z" fill="#FF0000"/>
<path d="M178 32H175V35H178V32Z" fill="#FF0000"/>
<path d="M178 41H175V44H178V41Z" fill="#FF0000"/>
<path d="M178 38H175V41H178V38Z" fill="#FF0000"/>
<path d="M178 44H175V47H178V44Z" fill="#FF0000"/>
<path d="M187 26H190V29H187V26Z" fill="#FF0000"/>
<path d="M187 29H190V32H187V29Z" fill="#FF0000"/>
<path d="M184 29H187V32H184V29Z" fill="#FF0000"/>
<path d="M187 32H190V35H187V32Z" fill="#FF0000"/>
<path d="M184 32H187V35H184V32Z" fill="#FF0000"/>
<path d="M181 29H184V32H181V29Z" fill="#FF0000"/>
<path d="M184 26H187V29H184V26Z" fill="#FF0000"/>
<path d="M190 29H193V32H190V29Z" fill="#FF0000"/>
<path d="M196 33H199V36H196V33Z" fill="#FF0000"/>
<path d="M187 47H190V50H187V47Z" fill="#FF0000"/>
<path d="M178 53H181V56H178V53Z" fill="#FF0000"/>
<path d="M169 47H172V50H169V47Z" fill="#FF0000"/>
<path d="M184 20H187V23H184V20Z" fill="#FF0000"/>
<path d="M193 23H196V26H193V23Z" fill="#FF0000"/>
<path d="M163 23H166V26H163V23Z" fill="#FF0000"/>
<path d="M172 20H175V23H172V20Z" fill="#FF0000"/>
<path d="M160 33H163V36H160V33Z" fill="#FF0000"/>
<path d="M190 32H193V35H190V32Z" fill="#FF0000"/>
<path d="M190 35H193V38H190V35Z" fill="#FF0000"/>
<path d="M181 26H184V29H181V26Z" fill="#FF0000"/>
<path d="M187 35H190V38H187V35Z" fill="#FF0000"/>
<path d="M187 38H190V41H187V38Z" fill="#FF0000"/>
<path d="M184 35H187V38H184V35Z" fill="#FF0000"/>
<path d="M184 38H187V41H184V38Z" fill="#FF0000"/>
<path d="M184 41H187V44H184V41Z" fill="#FF0000"/>
<path d="M181 35H184V38H181V35Z" fill="#FF0000"/>
<path d="M181 32H184V35H181V32Z" fill="#FF0000"/>
<path d="M181 41H184V44H181V41Z" fill="#FF0000"/>
<path d="M181 38H184V41H181V38Z" fill="#FF0000"/>
<path d="M181 44H184V47H181V44Z" fill="#FF0000"/>
<path d="M181 29H178V32H181V29Z" fill="#FF0000"/>
<path d="M181 35H178V38H181V35Z" fill="#FF0000"/>
<path d="M181 32H178V35H181V32Z" fill="#FF0000"/>
<path d="M181 41H178V44H181V41Z" fill="#FF0000"/>
<path d="M181 38H178V41H181V38Z" fill="#FF0000"/>
<path d="M181 44H178V47H181V44Z" fill="#FF0000"/>
<path d="M181 47H178V50H181V47Z" fill="#FF0000"/>
<path d="M132 26H129V29H132V26Z" fill="#FF0000"/>
<path d="M129 26H126V29H129V26Z" fill="#FF0000"/>
<path d="M132 29H129V32H132V29Z" fill="#FF0000"/>
<path d="M135 32H132V35H135V32Z" fill="#FF0000"/>
<path d="M138 29H135V32H138V29Z" fill="#FF0000"/>
<path d="M135 26H132V29H135V26Z" fill="#FF0000"/>
<path d="M129 29H126V32H129V29Z" fill="#FF0000"/>
<path d="M129 32H126V35H129V32Z" fill="#FF0000"/>
<path d="M129 35H126V38H129V35Z" fill="#FF0000"/>
<path d="M126 29H123V32H126V29Z" fill="#FF0000"/>
<path d="M126 32H123V35H126V32Z" fill="#FF0000"/>
<path d="M126 35H123V38H126V35Z" fill="#FF0000"/>
<path d="M138 26H135V29H138V26Z" fill="#FF0000"/>
<path d="M132 35H129V38H132V35Z" fill="#FF0000"/>
<path d="M132 38H129V41H132V38Z" fill="#FF0000"/>
<path d="M135 35H132V38H135V35Z" fill="#FF0000"/>
<path d="M135 38H132V41H135V38Z" fill="#FF0000"/>
<path d="M135 41H132V44H135V41Z" fill="#FF0000"/>
<path d="M138 35H135V38H138V35Z" fill="#FF0000"/>
<path d="M138 32H135V35H138V32Z" fill="#FF0000"/>
<path d="M138 41H135V44H138V41Z" fill="#FF0000"/>
<path d="M138 38H135V41H138V38Z" fill="#FF0000"/>
<path d="M138 44H135V47H138V44Z" fill="#FF0000"/>
<path d="M147 26H150V29H147V26Z" fill="#FF0000"/>
<path d="M150 26H153V29H150V26Z" fill="#FF0000"/>
<path d="M147 29H150V32H147V29Z" fill="#FF0000"/>
<path d="M144 29H147V32H144V29Z" fill="#FF0000"/>
<path d="M147 32H150V35H147V32Z" fill="#FF0000"/>
<path d="M144 32H147V35H144V32Z" fill="#FF0000"/>
<path d="M141 29H144V32H141V29Z" fill="#FF0000"/>
<path d="M144 26H147V29H144V26Z" fill="#FF0000"/>
<path d="M150 29H153V32H150V29Z" fill="#FF0000"/>
<path d="M153 29H156V32H153V29Z" fill="#FF0000"/>
<path d="M153 32H156V35H153V32Z" fill="#FF0000"/>
<path d="M153 35H156V38H153V35Z" fill="#FF0000"/>
<path d="M150 32H153V35H150V32Z" fill="#FF0000"/>
<path d="M150 35H153V38H150V35Z" fill="#FF0000"/>
<path d="M141 26H144V29H141V26Z" fill="#FF0000"/>
<path d="M132 23H129V26H132V23Z" fill="#FF0000"/>
<path d="M135 23H132V26H135V23Z" fill="#FF0000"/>
<path d="M138 23H135V26H138V23Z" fill="#FF0000"/>
<path d="M147 23H150V26H147V23Z" fill="#FF0000"/>
<path d="M144 23H147V26H144V23Z" fill="#FF0000"/>
<path d="M141 23H144V26H141V23Z" fill="#FF0000"/>
<path d="M147 35H150V38H147V35Z" fill="#FF0000"/>
<path d="M147 38H150V41H147V38Z" fill="#FF0000"/>
<path d="M144 35H147V38H144V35Z" fill="#FF0000"/>
<path d="M144 38H147V41H144V38Z" fill="#FF0000"/>
<path d="M144 41H147V44H144V41Z" fill="#FF0000"/>
<path d="M141 35H144V38H141V35Z" fill="#FF0000"/>
<path d="M141 32H144V35H141V32Z" fill="#FF0000"/>
<path d="M141 41H144V44H141V41Z" fill="#FF0000"/>
<path d="M141 38H144V41H141V38Z" fill="#FF0000"/>
<path d="M141 44H144V47H141V44Z" fill="#FF0000"/>
<path d="M141 29H138V32H141V29Z" fill="#FF0000"/>
<path d="M141 26H138V29H141V26Z" fill="#FF0000"/>
<path d="M141 35H138V38H141V35Z" fill="#FF0000"/>
<path d="M141 32H138V35H141V32Z" fill="#FF0000"/>
<path d="M141 41H138V44H141V41Z" fill="#FF0000"/>
<path d="M141 38H138V41H141V38Z" fill="#FF0000"/>
<path d="M141 44H138V47H141V44Z" fill="#FF0000"/>
<path d="M141 47H138V50H141V47Z" fill="#FF0000"/>
<path d="M141 50H138V53H141V50Z" fill="#FF0000"/>
<path d="M150 38H153V41H150V38Z" fill="#FF0000"/>
<path d="M147 41H150V44H147V41Z" fill="#FF0000"/>
<path d="M144 44H147V47H144V44Z" fill="#FF0000"/>
<path d="M144 47H141V50H144V47Z" fill="#FF0000"/>
<path d="M129 38H126V41H129V38Z" fill="#FF0000"/>
<path d="M132 41H129V44H132V41Z" fill="#FF0000"/>
<path d="M135 44H132V47H135V44Z" fill="#FF0000"/>
<path d="M138 47H135V50H138V47Z" fill="#FF0000"/>
<path d="M92 26H89V29H92V26Z" fill="#FF0000"/>
<path d="M92 29H89V32H92V29Z" fill="#FF0000"/>
<path d="M95 32H92V35H95V32Z" fill="#FF0000"/>
<path d="M98 29H95V32H98V29Z" fill="#FF0000"/>
<path d="M95 26H92V29H95V26Z" fill="#FF0000"/>
<path d="M89 29H86V32H89V29Z" fill="#FF0000"/>
<path d="M89 32H86V35H89V32Z" fill="#FF0000"/>
<path d="M89 35H86V38H89V35Z" fill="#FF0000"/>
<path d="M98 26H95V29H98V26Z" fill="#FF0000"/>
<path d="M92 35H89V38H92V35Z" fill="#FF0000"/>
<path d="M92 38H89V41H92V38Z" fill="#FF0000"/>
<path d="M95 35H92V38H95V35Z" fill="#FF0000"/>
<path d="M95 38H92V41H95V38Z" fill="#FF0000"/>
<path d="M95 41H92V44H95V41Z" fill="#FF0000"/>
<path d="M98 35H95V38H98V35Z" fill="#FF0000"/>
<path d="M98 32H95V35H98V32Z" fill="#FF0000"/>
<path d="M98 41H95V44H98V41Z" fill="#FF0000"/>
<path d="M98 38H95V41H98V38Z" fill="#FF0000"/>
<path d="M98 44H95V47H98V44Z" fill="#FF0000"/>
<path d="M107 26H110V29H107V26Z" fill="#FF0000"/>
<path d="M107 29H110V32H107V29Z" fill="#FF0000"/>
<path d="M104 29H107V32H104V29Z" fill="#FF0000"/>
<path d="M107 32H110V35H107V32Z" fill="#FF0000"/>
<path d="M104 32H107V35H104V32Z" fill="#FF0000"/>
<path d="M101 29H104V32H101V29Z" fill="#FF0000"/>
<path d="M104 26H107V29H104V26Z" fill="#FF0000"/>
<path d="M110 29H113V32H110V29Z" fill="#FF0000"/>
<path d="M110 32H113V35H110V32Z" fill="#FF0000"/>
<path d="M110 35H113V38H110V35Z" fill="#FF0000"/>
<path d="M101 26H104V29H101V26Z" fill="#FF0000"/>
<path d="M107 35H110V38H107V35Z" fill="#FF0000"/>
<path d="M107 38H110V41H107V38Z" fill="#FF0000"/>
<path d="M104 35H107V38H104V35Z" fill="#FF0000"/>
<path d="M104 38H107V41H104V38Z" fill="#FF0000"/>
<path d="M104 41H107V44H104V41Z" fill="#FF0000"/>
<path d="M101 35H104V38H101V35Z" fill="#FF0000"/>
<path d="M101 32H104V35H101V32Z" fill="#FF0000"/>
<path d="M101 41H104V44H101V41Z" fill="#FF0000"/>
<path d="M101 38H104V41H101V38Z" fill="#FF0000"/>
<path d="M101 44H104V47H101V44Z" fill="#FF0000"/>
<path d="M101 29H98V32H101V29Z" fill="#FF0000"/>
<path d="M101 35H98V38H101V35Z" fill="#FF0000"/>
<path d="M101 32H98V35H101V32Z" fill="#FF0000"/>
<path d="M101 41H98V44H101V41Z" fill="#FF0000"/>
<path d="M101 38H98V41H101V38Z" fill="#FF0000"/>
<path d="M101 44H98V47H101V44Z" fill="#FF0000"/>
<path d="M101 47H98V50H101V47Z" fill="#FF0000"/>
<path d="M52 26H49V29H52V26Z" fill="black"/>
<path d="M55 26H52V29H55V26Z" fill="black"/>
<path d="M49 29H46V32H49V29Z" fill="black"/>
<path d="M49 32H46V35H49V32Z" fill="black"/>
<path d="M49 35H46V38H49V35Z" fill="black"/>
<path d="M58 26H55V29H58V26Z" fill="black"/>
<path d="M52 38H49V41H52V38Z" fill="black"/>
<path d="M55 41H52V44H55V41Z" fill="black"/>
<path d="M58 35H55V38H58V35Z" fill="#FF0000"/>
<path d="M58 44H55V47H58V44Z" fill="black"/>
<path d="M67 26H70V29H67V26Z" fill="black"/>
<path d="M64 26H67V29H64V26Z" fill="black"/>
<path d="M70 29H73V32H70V29Z" fill="black"/>
<path d="M70 32H73V35H70V32Z" fill="black"/>
<path d="M70 35H73V38H70V35Z" fill="black"/>
<path d="M61 26H64V29H61V26Z" fill="black"/>
<path d="M67 38H70V41H67V38Z" fill="black"/>
<path d="M64 41H67V44H64V41Z" fill="black"/>
<path d="M61 35H64V38H61V35Z" fill="#FF0000"/>
<path d="M61 44H64V47H61V44Z" fill="black"/>
<path d="M61 29H58V32H61V29Z" fill="black"/>
<path d="M61 35H58V38H61V35Z" fill="#FF0000"/>
<path d="M61 32H58V35H61V32Z" fill="#FF0000"/>
<path d="M61 38H58V41H61V38Z" fill="#FF0000"/>
<path d="M61 47H58V50H61V47Z" fill="black"/>
<path d="M12 26H9V29H12V26Z" fill="black"/>
<path d="M15 26H12V29H15V26Z" fill="black"/>
<path d="M9 29H6V32H9V29Z" fill="black"/>
<path d="M9 32H6V35H9V32Z" fill="black"/>
<path d="M9 35H6V38H9V35Z" fill="black"/>
<path d="M18 26H15V29H18V26Z" fill="black"/>
<path d="M12 38H9V41H12V38Z" fill="black"/>
<path d="M15 41H12V44H15V41Z" fill="black"/>
<path d="M18 44H15V47H18V44Z" fill="black"/>
<path d="M27 26H30V29H27V26Z" fill="black"/>
<path d="M24 26H27V29H24V26Z" fill="black"/>
<path d="M30 29H33V32H30V29Z" fill="black"/>
<path d="M30 32H33V35H30V32Z" fill="black"/>
<path d="M30 35H33V38H30V35Z" fill="black"/>
<path d="M21 26H24V29H21V26Z" fill="black"/>
<path d="M27 38H30V41H27V38Z" fill="black"/>
<path d="M24 41H27V44H24V41Z" fill="black"/>
<path d="M21 44H24V47H21V44Z" fill="black"/>
<path d="M21 29H18V32H21V29Z" fill="black"/>
<path d="M21 47H18V50H21V47Z" fill="black"/>
</svg>
