<svg xmlns="http://www.w3.org/2000/svg" fill="none" viewBox="0 0 27 24">
    <symbol id="heart-frame-1">
        <path fill="#000" d="M6 0H3v3h3V0ZM9 0H6v3h3V0ZM3 3H0v3h3V3ZM3 6H0v3h3V6ZM3 9H0v3h3V9ZM12 0H9v3h3V0ZM6 12H3v3h3v-3ZM9 15H6v3h3v-3ZM12 18H9v3h3v-3ZM21 0h3v3h-3V0ZM18 0h3v3h-3V0ZM24 3h3v3h-3V3ZM24 6h3v3h-3V6ZM24 9h3v3h-3V9ZM15 0h3v3h-3V0ZM21 12h3v3h-3v-3ZM18 15h3v3h-3v-3ZM15 18h3v3h-3v-3ZM15 3h-3v3h3V3ZM15 21h-3v3h3v-3Z"
        />
    </symbol>
</svg>
<svg xmlns="http://www.w3.org/2000/svg" fill="none" viewBox="0 0 27 24">
    <symbol id="heart-frame-2">
        <path fill="#000" d="M6 0H3v3h3V0ZM9 0H6v3h3V0ZM3 3H0v3h3V3ZM3 6H0v3h3V6ZM3 9H0v3h3V9ZM12 0H9v3h3V0ZM6 12H3v3h3v-3ZM9 15H6v3h3v-3Z"/>
        <path fill="red" d="M12 9H9v3h3V9Z"/>
        <path fill="#000" d="M12 18H9v3h3v-3ZM21 0h3v3h-3V0ZM18 0h3v3h-3V0ZM24 3h3v3h-3V3ZM24 6h3v3h-3V6ZM24 9h3v3h-3V9ZM15 0h3v3h-3V0ZM21 12h3v3h-3v-3ZM18 15h3v3h-3v-3Z"/>
        <path fill="red" d="M15 9h3v3h-3V9Z"/>
        <path fill="#000" d="M15 18h3v3h-3v-3ZM15 3h-3v3h3V3Z"/>
        <path fill="red" d="M15 9h-3v3h3V9ZM15 6h-3v3h3V6ZM15 12h-3v3h3v-3Z"/>
        <path fill="#000" d="M15 21h-3v3h3v-3Z"/>
    </symbol>
</svg>
<svg xmlns="http://www.w3.org/2000/svg" fill="none" viewBox="0 0 27 24">
    <symbol id="heart-frame-3">
        <path fill="red" d="M6 0H3v3h3V0ZM6 3H3v3h3V3ZM9 6H6v3h3V6ZM12 3H9v3h3V3ZM9 0H6v3h3V0ZM3 3H0v3h3V3ZM3 6H0v3h3V6ZM3 9H0v3h3V9ZM12 0H9v3h3V0ZM6 9H3v3h3V9ZM6 12H3v3h3v-3ZM9 9H6v3h3V9ZM9 12H6v3h3v-3ZM9 15H6v3h3v-3ZM12 9H9v3h3V9ZM12 6H9v3h3V6ZM12 15H9v3h3v-3ZM12 12H9v3h3v-3ZM12 18H9v3h3v-3ZM21 0h3v3h-3V0ZM21 3h3v3h-3V3ZM18 3h3v3h-3V3ZM21 6h3v3h-3V6ZM18 6h3v3h-3V6ZM15 3h3v3h-3V3ZM18 0h3v3h-3V0ZM24 3h3v3h-3V3ZM24 6h3v3h-3V6ZM24 9h3v3h-3V9ZM15 0h3v3h-3V0ZM21 9h3v3h-3V9ZM21 12h3v3h-3v-3ZM18 9h3v3h-3V9ZM18 12h3v3h-3v-3ZM18 15h3v3h-3v-3ZM15 9h3v3h-3V9ZM15 6h3v3h-3V6ZM15 15h3v3h-3v-3ZM15 12h3v3h-3v-3ZM15 18h3v3h-3v-3ZM15 3h-3v3h3V3ZM15 9h-3v3h3V9ZM15 6h-3v3h3V6ZM15 15h-3v3h3v-3ZM15 12h-3v3h3v-3ZM15 18h-3v3h3v-3ZM15 21h-3v3h3v-3Z"/>
    </symbol>
</svg>
<svg xmlns="http://www.w3.org/2000/svg" fill="none" viewBox="0 0 33 30">
    <symbol id="heart-frame-4">
        <path fill="red" d="M9 3H6v3h3V3ZM6 3H3v3h3V3ZM9 6H6v3h3V6ZM12 9H9v3h3V9ZM15 6h-3v3h3V6ZM12 3H9v3h3V3ZM6 6H3v3h3V6ZM6 9H3v3h3V9ZM6 12H3v3h3v-3ZM3 6H0v3h3V6ZM3 9H0v3h3V9ZM3 12H0v3h3v-3ZM15 3h-3v3h3V3ZM9 12H6v3h3v-3ZM9 15H6v3h3v-3ZM12 12H9v3h3v-3ZM12 15H9v3h3v-3ZM12 18H9v3h3v-3ZM15 12h-3v3h3v-3ZM15 9h-3v3h3V9ZM15 18h-3v3h3v-3ZM15 15h-3v3h3v-3ZM15 21h-3v3h3v-3ZM24 3h3v3h-3V3ZM27 3h3v3h-3V3ZM24 6h3v3h-3V6ZM21 6h3v3h-3V6ZM24 9h3v3h-3V9ZM21 9h3v3h-3V9ZM18 6h3v3h-3V6ZM21 3h3v3h-3V3ZM27 6h3v3h-3V6ZM30 6h3v3h-3V6ZM30 9h3v3h-3V9ZM30 12h3v3h-3v-3ZM27 9h3v3h-3V9ZM27 12h3v3h-3v-3ZM18 3h3v3h-3V3ZM9 0H6v3h3V0ZM12 0H9v3h3V0ZM15 0h-3v3h3V0ZM24 0h3v3h-3V0ZM21 0h3v3h-3V0ZM18 0h3v3h-3V0ZM24 12h3v3h-3v-3ZM24 15h3v3h-3v-3ZM21 12h3v3h-3v-3ZM21 15h3v3h-3v-3ZM21 18h3v3h-3v-3ZM18 12h3v3h-3v-3ZM18 9h3v3h-3V9ZM18 18h3v3h-3v-3ZM18 15h3v3h-3v-3ZM18 21h3v3h-3v-3ZM18 6h-3v3h3V6ZM18 3h-3v3h3V3ZM18 12h-3v3h3v-3ZM18 9h-3v3h3V9ZM18 18h-3v3h3v-3ZM18 15h-3v3h3v-3ZM18 21h-3v3h3v-3ZM18 24h-3v3h3v-3ZM18 27h-3v3h3v-3ZM27 15h3v3h-3v-3ZM24 18h3v3h-3v-3ZM21 21h3v3h-3v-3ZM21 24h-3v3h3v-3ZM6 15H3v3h3v-3ZM9 18H6v3h3v-3ZM12 21H9v3h3v-3ZM15 24h-3v3h3v-3Z"/>
    </symbol>
</svg>
<svg xmlns="http://www.w3.org/2000/svg" fill="none" viewBox="0 0 39 36">
    <symbol id="heart-frame-5">
        <path fill="red" d="M12 6H9v3h3V6ZM12 9H9v3h3V9ZM15 12h-3v3h3v-3ZM18 9h-3v3h3V9ZM15 6h-3v3h3V6ZM9 9H6v3h3V9ZM9 12H6v3h3v-3ZM9 15H6v3h3v-3ZM18 6h-3v3h3V6ZM12 15H9v3h3v-3ZM12 18H9v3h3v-3ZM15 15h-3v3h3v-3ZM15 18h-3v3h3v-3ZM15 21h-3v3h3v-3ZM18 15h-3v3h3v-3ZM18 12h-3v3h3v-3ZM18 21h-3v3h3v-3ZM18 18h-3v3h3v-3ZM18 24h-3v3h3v-3ZM27 6h3v3h-3V6ZM27 9h3v3h-3V9ZM24 9h3v3h-3V9ZM27 12h3v3h-3v-3ZM24 12h3v3h-3v-3ZM21 9h3v3h-3V9ZM24 6h3v3h-3V6ZM30 9h3v3h-3V9ZM36 13h3v3h-3v-3ZM27 27h3v3h-3v-3ZM18 33h3v3h-3v-3ZM9 27h3v3H9v-3ZM24 0h3v3h-3V0ZM33 3h3v3h-3V3ZM3 3h3v3H3V3ZM12 0h3v3h-3V0ZM0 13h3v3H0v-3ZM30 12h3v3h-3v-3ZM30 15h3v3h-3v-3ZM21 6h3v3h-3V6ZM27 15h3v3h-3v-3ZM27 18h3v3h-3v-3ZM24 15h3v3h-3v-3ZM24 18h3v3h-3v-3ZM24 21h3v3h-3v-3ZM21 15h3v3h-3v-3ZM21 12h3v3h-3v-3ZM21 21h3v3h-3v-3ZM21 18h3v3h-3v-3ZM21 24h3v3h-3v-3ZM21 9h-3v3h3V9ZM21 15h-3v3h3v-3ZM21 12h-3v3h3v-3ZM21 21h-3v3h3v-3ZM21 18h-3v3h3v-3ZM21 24h-3v3h3v-3ZM21 27h-3v3h3v-3Z"/>
    </symbol>
</svg>
<svg xmlns="http://www.w3.org/2000/svg" fill="none" viewBox="0 0 27 24">
    <symbol id="heart-frame-7">
        <path fill="red" d="M6 0H3v3h3V0ZM6 3H3v3h3V3ZM9 6H6v3h3V6ZM12 3H9v3h3V3ZM9 0H6v3h3V0ZM3 3H0v3h3V3ZM3 6H0v3h3V6ZM3 9H0v3h3V9ZM12 0H9v3h3V0ZM6 9H3v3h3V9ZM6 12H3v3h3v-3ZM9 9H6v3h3V9ZM9 12H6v3h3v-3ZM9 15H6v3h3v-3ZM12 9H9v3h3V9ZM12 6H9v3h3V6ZM12 15H9v3h3v-3ZM12 12H9v3h3v-3ZM12 18H9v3h3v-3ZM21 0h3v3h-3V0ZM21 3h3v3h-3V3ZM18 3h3v3h-3V3ZM21 6h3v3h-3V6ZM18 6h3v3h-3V6ZM15 3h3v3h-3V3ZM18 0h3v3h-3V0ZM24 3h3v3h-3V3ZM24 6h3v3h-3V6ZM24 9h3v3h-3V9ZM15 0h3v3h-3V0ZM21 9h3v3h-3V9ZM21 12h3v3h-3v-3ZM18 9h3v3h-3V9ZM18 12h3v3h-3v-3ZM18 15h3v3h-3v-3ZM15 9h3v3h-3V9ZM15 6h3v3h-3V6ZM15 15h3v3h-3v-3ZM15 12h3v3h-3v-3ZM15 18h3v3h-3v-3ZM15 3h-3v3h3V3ZM15 9h-3v3h3V9ZM15 6h-3v3h3V6ZM15 15h-3v3h3v-3ZM15 12h-3v3h3v-3ZM15 18h-3v3h3v-3ZM15 21h-3v3h3v-3Z"/>
    </symbol>
</svg>